# xmcd CD database file
#
# Track frame offsets:
#	150
#	13671
#	29048
#	43492
#	64383
#	76516
#	90480
#	109291
#	124342
#	142428
#
# Disc length: 2120 seconds
#
# Revision: 0
# Processed by: cddbd v1.5.2PL0 Copyright (c) Steve Scherf et al.
# Submitted via: CDex 1.79
#
DISCID=9408460a
DTITLE=Ashton Shepherd - Where Country Grows
DYEAR=2011
DGENRE=Country
TTITLE0=Look It Up
TTITLE1=I`m Good
TTITLE2=Where Country Grows
TTITLE3=I`m Just A Woman
TTITLE4=More Cows Than People
TTITLE5=Beer On A Boat
TTITLE6=While It Ain`t Rainin`
TTITLE7=Tryin` To Go To Church
TTITLE8=That All Leads To One Thing
TTITLE9=Rory`s Radio
EXTD=YEAR: 2011
EXTT0=
EXTT1=
EXTT2=
EXTT3=
EXTT4=
EXTT5=
EXTT6=
EXTT7=
EXTT8=
EXTT9=
PLAYORDER=
